<svg width="24" height="24" viewBox="0 0 24 24" fill="none" xmlns="http://www.w3.org/2000/svg">
<g id="Regular/EyeSlash">
<path id="Vector" d="M4.5 3.75L19.5 20.25" stroke="#191C1F" stroke-width="1.5" stroke-linecap="round" stroke-linejoin="round"/>
<path id="Vector_2" d="M14.5219 14.775C13.8337 15.4054 12.9333 15.7535 12 15.75C11.2431 15.7499 10.504 15.5208 9.87978 15.0928C9.25555 14.6647 8.77545 14.0579 8.50259 13.3519C8.22973 12.6459 8.17689 11.8739 8.35101 11.1373C8.52513 10.4007 8.91806 9.73406 9.47815 9.22498" stroke="#191C1F" stroke-width="1.5" stroke-linecap="round" stroke-linejoin="round"/>
<path id="Vector_3" d="M6.9375 6.43127C3.1125 8.36252 1.5 12 1.5 12C1.5 12 4.5 18.75 12 18.75C13.7574 18.7643 15.4929 18.3594 17.0625 17.5688" stroke="#191C1F" stroke-width="1.5" stroke-linecap="round" stroke-linejoin="round"/>
<path id="Vector_4" d="M19.5563 15.8531C21.6 14.025 22.5 12 22.5 12C22.5 12 19.5 5.25002 12 5.25002C11.3498 5.24874 10.7007 5.30205 10.0594 5.4094" stroke="#191C1F" stroke-width="1.5" stroke-linecap="round" stroke-linejoin="round"/>
<path id="Vector_5" d="M12.7031 8.31567C13.5006 8.46678 14.2273 8.87317 14.7735 9.47353C15.3198 10.0739 15.6559 10.8356 15.7313 11.6438" stroke="#191C1F" stroke-width="1.5" stroke-linecap="round" stroke-linejoin="round"/>
</g>
</svg>
